<?xml version="1.0" standalone="no"?>
<!DOCTYPE svg PUBLIC "-//W3C//DTD SVG 20010904//EN"
 "http://www.w3.org/TR/2001/REC-SVG-20010904/DTD/svg10.dtd">
<svg version="1.0" xmlns="http://www.w3.org/2000/svg"
 width="1280.000000pt" height="662.000000pt" viewBox="0 0 1280.000000 662.000000"
 preserveAspectRatio="xMidYMid meet">
<g transform="translate(0.000000,662.000000) scale(0.100000,-0.100000)"
fill="#000000" stroke="none">
<path d="M6519 6616 c-2 -2 -83 -9 -179 -16 -683 -44 -1280 -165 -1955 -394
-1208 -409 -2457 -1158 -3580 -2144 -309 -271 -785 -738 -785 -769 0 -6 125
-133 278 -284 1706 -1686 3465 -2668 5242 -2929 603 -88 1080 -96 1685 -29
1457 162 2893 809 4225 1905 429 353 850 763 1189 1157 75 88 136 167 136 177
0 10 -62 91 -139 180 -416 486 -913 979 -1376 1365 -1263 1053 -2640 1650
-4050 1755 -80 6 -192 15 -250 20 -103 10 -433 14 -441 6z m386 -595 c507 -82
958 -277 1354 -584 125 -97 349 -317 445 -437 232 -291 416 -648 511 -995 206
-753 70 -1559 -373 -2210 -145 -213 -360 -447 -557 -605 -211 -171 -547 -362
-798 -455 -1074 -395 -2273 -138 -3071 660 -415 415 -682 943 -771 1525 -9 58
-19 200 -22 315 -6 225 8 401 48 594 209 1027 1003 1854 2044 2126 291 76 452
95 795 90 208 -3 293 -8 395 -24z"/>
<path d="M6365 5353 c-405 -27 -797 -182 -1104 -438 -319 -265 -533 -622 -622
-1035 -20 -91 -23 -135 -23 -335 -1 -260 14 -365 80 -563 199 -594 703 -1053
1324 -1206 1027 -252 2073 366 2305 1364 24 104 22 108 -32 60 -118 -104 -290
-194 -451 -238 -88 -23 -114 -26 -277 -26 -163 0 -189 3 -278 27 -300 81 -550
277 -688 540 -234 448 -112 990 294 1297 175 133 334 193 602 228 l60 8 -50
32 c-88 57 -287 150 -398 187 -235 78 -504 114 -742 98z"/>
</g>
</svg>
