<svg width="26" height="26" viewBox="0 0 26 26" fill="none" xmlns="http://www.w3.org/2000/svg">
<path d="M5.13619 7.617C5.71118 7.2063 6.31746 6.84127 6.94947 6.52527V6.52527C10.7584 4.62082 15.2416 4.62082 19.0505 6.52527V6.52527C19.6825 6.84127 20.2888 7.2063 20.8638 7.617L22.4431 8.74507C24.6765 10.3403 24.6765 13.6597 22.4431 15.2549L20.8638 16.383C20.2888 16.7937 19.6825 17.1587 19.0505 17.4747V17.4747C15.2416 19.3792 10.7584 19.3792 6.94947 17.4747V17.4747C6.31746 17.1587 5.71118 16.7937 5.13619 16.383L3.55691 15.2549C1.32351 13.6597 1.32351 10.3403 3.55691 8.74507L5.13619 7.617Z" stroke="#060A0D" stroke-width="2"/>
<rect x="6" y="5" width="14" height="14" rx="7" stroke="#060A0D" stroke-width="2"/>
<rect x="10" y="9" width="6" height="6" rx="3" fill="#060A0D" stroke="#060A0D" stroke-width="2"/>
<rect x="13" y="10" width="2" height="2" rx="1" fill="white"/>
<g filter="url(#filter0_d_1461_854)">
<path d="M22.774 1.63324C23.1237 1.20579 23.0607 0.57577 22.6332 0.226043C22.2058 -0.123685 21.5758 -0.0606826 21.226 0.366762L22.774 1.63324ZM3.22604 22.3668C2.87631 22.7942 2.93932 23.4242 3.36676 23.774C3.79421 24.1237 4.42423 24.0607 4.77396 23.6332L3.22604 22.3668ZM21.226 0.366762L3.22604 22.3668L4.77396 23.6332L22.774 1.63324L21.226 0.366762Z" fill="#060A0D"/>
</g>
<defs>
<filter id="filter0_d_1461_854" x="2.99997" y="0" width="20.0001" height="27" filterUnits="userSpaceOnUse" color-interpolation-filters="sRGB">
<feFlood flood-opacity="0" result="BackgroundImageFix"/>
<feColorMatrix in="SourceAlpha" type="matrix" values="0 0 0 0 0 0 0 0 0 0 0 0 0 0 0 0 0 0 127 0" result="hardAlpha"/>
<feOffset dy="3"/>
<feColorMatrix type="matrix" values="0 0 0 0 1 0 0 0 0 1 0 0 0 0 1 0 0 0 1 0"/>
<feBlend mode="normal" in2="BackgroundImageFix" result="effect1_dropShadow_1461_854"/>
<feBlend mode="normal" in="SourceGraphic" in2="effect1_dropShadow_1461_854" result="shape"/>
</filter>
</defs>
</svg>
