<svg width="26" height="24" viewBox="0 0 26 26" fill="none" xmlns="http://www.w3.org/2000/svg">
<path d="M5.13619 7.617C5.71118 7.2063 6.31746 6.84127 6.94947 6.52527V6.52527C10.7584 4.62082 15.2416 4.62082 19.0505 6.52527V6.52527C19.6825 6.84127 20.2888 7.2063 20.8638 7.617L22.4431 8.74507C24.6765 10.3403 24.6765 13.6597 22.4431 15.2549L20.8638 16.383C20.2888 16.7937 19.6825 17.1587 19.0505 17.4747V17.4747C15.2416 19.3792 10.7584 19.3792 6.94947 17.4747V17.4747C6.31746 17.1587 5.71118 16.7937 5.13619 16.383L3.55691 15.2549C1.32351 13.6597 1.32351 10.3403 3.55691 8.74507L5.13619 7.617Z" stroke="#000000" stroke-width="2"/>
<rect x="6" y="5" width="14" height="14" rx="7" stroke="#000000" stroke-width="2"/>
<rect x="10" y="9" width="6" height="6" rx="3" fill="#00000" stroke="#000000" stroke-width="2"/>
<rect x="13" y="10" width="2" height="2" rx="1" fill="white"/>
</svg>
